<svg width="186" height="48" viewBox="0 0 186 48" fill="none" xmlns="http://www.w3.org/2000/svg">
<path d="M35.875 39V9.90909H43.7727V21.6705H44.1705L52.9205 9.90909H62.125L52.2955 22.8636L62.3523 39H52.9205L46.3864 28.0909L43.7727 31.5V39H35.875ZM70.6619 39.3409C69.2699 39.3409 68.0388 39.1136 66.9688 38.6591C65.9081 38.1951 65.0748 37.4943 64.4688 36.5568C63.8627 35.6193 63.5597 34.4261 63.5597 32.9773C63.5597 31.7841 63.7633 30.7661 64.1705 29.9233C64.5777 29.071 65.1458 28.375 65.875 27.8352C66.6042 27.2955 67.4517 26.8835 68.4176 26.5994C69.393 26.3153 70.4441 26.1307 71.571 26.0455C72.7926 25.9508 73.7727 25.8371 74.5114 25.7045C75.2595 25.5625 75.7992 25.3684 76.1307 25.1222C76.4621 24.8665 76.6278 24.5303 76.6278 24.1136V24.0568C76.6278 23.4886 76.41 23.053 75.9744 22.75C75.5388 22.447 74.9801 22.2955 74.2983 22.2955C73.5502 22.2955 72.9394 22.4612 72.4659 22.7926C72.0019 23.1146 71.7225 23.6117 71.6278 24.2841H64.4119C64.5066 22.9583 64.928 21.7367 65.6761 20.6193C66.4337 19.4924 67.5369 18.5928 68.9858 17.9205C70.4347 17.2386 72.2434 16.8977 74.4119 16.8977C75.9744 16.8977 77.3759 17.0824 78.6165 17.4517C79.857 17.8116 80.9129 18.3182 81.7841 18.9716C82.6553 19.6155 83.3182 20.3731 83.7727 21.2443C84.2367 22.1061 84.4688 23.0436 84.4688 24.0568V39H77.1392V35.9318H76.9688C76.5331 36.7462 76.0028 37.4044 75.3778 37.9062C74.7623 38.4081 74.0568 38.7727 73.2614 39C72.4754 39.2273 71.6089 39.3409 70.6619 39.3409ZM73.2188 34.3977C73.8153 34.3977 74.3741 34.2746 74.8949 34.0284C75.4252 33.7822 75.8561 33.4271 76.1875 32.9631C76.5189 32.4991 76.6847 31.9356 76.6847 31.2727V29.4545C76.4763 29.5398 76.2538 29.6203 76.017 29.696C75.7898 29.7718 75.5436 29.8428 75.2784 29.9091C75.0227 29.9754 74.7481 30.0369 74.4545 30.0938C74.1705 30.1506 73.8722 30.2027 73.5597 30.25C72.9536 30.3447 72.4564 30.5009 72.0682 30.7188C71.6894 30.9271 71.4053 31.1875 71.2159 31.5C71.036 31.803 70.946 32.1439 70.946 32.5227C70.946 33.1288 71.1591 33.5928 71.5852 33.9148C72.0114 34.2367 72.5559 34.3977 73.2188 34.3977ZM96.0561 26.7273V39H88.2152V17.1818H95.6584V21.3295H95.8857C96.3591 19.947 97.1925 18.8627 98.3857 18.0767C99.5883 17.2907 100.99 16.8977 102.59 16.8977C104.134 16.8977 105.474 17.2528 106.61 17.9631C107.756 18.6638 108.641 19.6297 109.266 20.8608C109.901 22.0919 110.213 23.4981 110.204 25.0795V39H102.363V26.7273C102.372 25.6477 102.098 24.8002 101.539 24.1847C100.99 23.5691 100.223 23.2614 99.2379 23.2614C98.594 23.2614 98.0305 23.4034 97.5476 23.6875C97.0741 23.9621 96.7095 24.3598 96.4538 24.8807C96.1982 25.392 96.0656 26.0076 96.0561 26.7273Z" fill="#4EA8DE"/>
<path d="M121.972 39.2841C120.419 39.2841 118.989 38.8769 117.683 38.0625C116.385 37.2481 115.344 36.0123 114.558 34.3551C113.781 32.6979 113.393 30.6098 113.393 28.0909C113.393 25.4583 113.8 23.3182 114.614 21.6705C115.438 20.0227 116.499 18.8153 117.796 18.0483C119.103 17.2812 120.476 16.8977 121.915 16.8977C122.995 16.8977 123.942 17.0871 124.756 17.4659C125.571 17.8352 126.253 18.3324 126.802 18.9574C127.351 19.5729 127.768 20.25 128.052 20.9886H128.165V9.90909H136.006V39H128.222V35.4205H128.052C127.749 36.1591 127.313 36.822 126.745 37.4091C126.186 37.9867 125.504 38.446 124.7 38.7869C123.904 39.1184 122.995 39.2841 121.972 39.2841ZM124.87 33.2614C125.59 33.2614 126.205 33.053 126.717 32.6364C127.237 32.2102 127.635 31.6136 127.91 30.8466C128.194 30.0701 128.336 29.1515 128.336 28.0909C128.336 27.0114 128.194 26.0881 127.91 25.321C127.635 24.5445 127.237 23.9527 126.717 23.5455C126.205 23.1288 125.59 22.9205 124.87 22.9205C124.15 22.9205 123.535 23.1288 123.023 23.5455C122.522 23.9527 122.133 24.5445 121.859 25.321C121.594 26.0881 121.461 27.0114 121.461 28.0909C121.461 29.1705 121.594 30.0985 121.859 30.875C122.133 31.642 122.522 32.2339 123.023 32.6506C123.535 33.0578 124.15 33.2614 124.87 33.2614ZM150.31 39.3977C147.981 39.3977 145.973 38.9527 144.288 38.0625C142.612 37.1629 141.319 35.875 140.41 34.1989C139.51 32.5133 139.06 30.4962 139.06 28.1477C139.06 25.8939 139.515 23.9242 140.424 22.2386C141.333 20.553 142.616 19.2415 144.273 18.304C145.931 17.3665 147.886 16.8977 150.14 16.8977C151.788 16.8977 153.279 17.1534 154.614 17.6648C155.95 18.1761 157.091 18.9195 158.038 19.8949C158.985 20.8608 159.714 22.035 160.225 23.4176C160.737 24.8002 160.992 26.358 160.992 28.0909V29.9091H141.504V25.5909H153.776C153.767 24.9659 153.606 24.4167 153.293 23.9432C152.99 23.4602 152.578 23.0862 152.058 22.821C151.546 22.5464 150.964 22.4091 150.31 22.4091C149.676 22.4091 149.094 22.5464 148.563 22.821C148.033 23.0862 147.607 23.4555 147.285 23.929C146.972 24.4025 146.807 24.9564 146.788 25.5909V30.25C146.788 30.9508 146.934 31.5758 147.228 32.125C147.522 32.6742 147.943 33.1051 148.492 33.4176C149.041 33.7301 149.704 33.8864 150.481 33.8864C151.021 33.8864 151.513 33.8106 151.958 33.6591C152.413 33.5076 152.801 33.2898 153.123 33.0057C153.445 32.7121 153.682 32.3617 153.833 31.9545H160.992C160.746 33.4697 160.164 34.786 159.245 35.9034C158.326 37.0114 157.11 37.8731 155.594 38.4886C154.089 39.0947 152.327 39.3977 150.31 39.3977ZM185.634 17.1818L178.304 39H169.213L161.884 17.1818H170.122L173.645 31.6136H173.872L177.395 17.1818H185.634Z" fill="#5E60CE"/>
<g clip-path="url(#clip0_12_482)">
<path d="M11.0214 12.933C14.1471 16.9011 15.8156 21.7944 15.7551 26.8155V28.0141L16.7864 28.6416C18.1188 29.4482 19.1126 30.6993 19.5865 32.1669C19.1704 31.8605 18.7351 31.5803 18.2831 31.3278L15.5331 29.7838L15.039 32.9001C14.9962 33.1755 14.9388 33.4485 14.8671 33.718H7.16138C7.0468 33.3655 6.9537 33.0129 6.86776 32.6463L6.24472 29.8261L3.70956 31.2362C3.28603 31.473 2.87711 31.7344 2.48495 32.0188C2.96812 30.5682 3.94111 29.3242 5.24211 28.4935L6.22323 27.866V26.7521C6.24093 21.7513 7.92955 16.8952 11.0286 12.933H11.0214ZM11.0286 10C10.8679 10.0004 10.7127 10.058 10.5917 10.1622L10.5273 10.2186C6.39766 14.7656 4.10454 20.6454 4.08196 26.745C2.32955 27.8643 1.03238 29.5543 0.417141 31.5197C-0.198101 33.485 -0.0922939 35.6007 0.716072 37.4971C1.56764 35.6455 2.99119 34.1058 4.78378 33.0975C4.96356 33.8642 5.20298 34.6161 5.49993 35.3467C5.53759 35.4871 5.62106 35.6114 5.73751 35.7006C5.85396 35.7898 5.99694 35.8388 6.14446 35.8402H16.0846C16.2851 35.8402 16.4856 35.6498 16.5859 35.3537C16.8757 34.6592 17.0777 33.9322 17.1874 33.1892C18.9834 34.1932 20.4082 35.7342 21.2551 37.5887C22.1123 35.7017 22.245 33.5727 21.6286 31.5967C21.0123 29.6206 19.6887 27.9319 17.9036 26.8437C17.9744 20.7082 15.6934 14.7718 11.5156 10.2186C11.4533 10.1501 11.3772 10.0952 11.2921 10.0576C11.2069 10.0199 11.1147 10.0003 11.0214 10H11.0286Z" fill="#4EA8DE"/>
<path d="M11.0213 26.1598C10.4713 26.1598 9.93351 25.9995 9.47587 25.699C9.01822 25.3986 8.66116 24.9715 8.44969 24.4716C8.23822 23.9716 8.18181 23.4213 8.28758 22.8898C8.39334 22.3584 8.65653 21.8697 9.04399 21.4853C9.43144 21.1009 9.92582 20.838 10.4648 20.7298C11.0038 20.6216 11.5632 20.6729 12.0726 20.8773C12.582 21.0816 13.0186 21.4298 13.3272 21.8781C13.6359 22.3263 13.8029 22.8545 13.8071 23.396C13.8157 23.7469 13.7539 24.0961 13.6254 24.4235C13.4969 24.751 13.304 25.0503 13.058 25.3043C12.8119 25.5583 12.5174 25.7622 12.1913 25.9041C11.8652 26.0461 11.5139 26.1234 11.1574 26.1316C11.1123 26.1387 11.0664 26.1387 11.0213 26.1316V26.1598Z" fill="#4EA8DE"/>
<path d="M14.8957 37.5958C14.7165 37.5901 14.538 37.6198 14.3706 37.683C14.2032 37.7462 14.0503 37.8416 13.9209 37.9638C13.7915 38.086 13.6881 38.2323 13.6169 38.3943C13.5458 38.5563 13.5082 38.7307 13.5063 38.9072V43.067C13.5063 43.4297 13.6527 43.7776 13.9133 44.0342C14.1738 44.2907 14.5272 44.4348 14.8957 44.4348C15.2641 44.4348 15.6175 44.2907 15.8781 44.0342C16.1386 43.7776 16.285 43.4297 16.285 43.067V38.9636C16.2907 38.7877 16.2608 38.6126 16.1971 38.4482C16.1333 38.2839 16.037 38.1337 15.9137 38.0064C15.7904 37.879 15.6425 37.7772 15.4788 37.7067C15.3151 37.6362 15.1388 37.5985 14.9601 37.5958H14.8957Z" fill="#5E60CE"/>
<path d="M7.1613 37.5958C6.97906 37.5863 6.79675 37.613 6.62521 37.6743C6.45367 37.7356 6.29641 37.8302 6.16278 37.9526C6.02915 38.0749 5.92188 38.2225 5.84736 38.3865C5.77284 38.5505 5.73259 38.7275 5.729 38.9072V43.067C5.729 43.4297 5.87538 43.7777 6.13593 44.0342C6.39648 44.2907 6.74986 44.4348 7.11833 44.4348C7.4868 44.4348 7.84018 44.2907 8.10073 44.0342C8.36128 43.7777 8.50765 43.4297 8.50765 43.067V38.9636C8.51337 38.7877 8.48349 38.6126 8.41974 38.4482C8.35599 38.2839 8.25965 38.1337 8.13634 38.0064C8.01302 37.879 7.8652 37.7772 7.70149 37.7067C7.53777 37.6362 7.36144 37.5985 7.18278 37.5958H7.1613Z" fill="#5E60CE"/>
<path d="M10.9211 37.5958C10.7424 37.592 10.5647 37.623 10.3981 37.6869C10.2316 37.7507 10.0795 37.8463 9.95044 37.9681C9.82142 38.0899 9.71804 38.2355 9.6462 38.3966C9.57435 38.5577 9.53546 38.7312 9.53174 38.9072V44.6392C9.53174 45.002 9.67811 45.3499 9.93866 45.6064C10.1992 45.8629 10.5526 46.007 10.9211 46.007C11.2895 46.007 11.6429 45.8629 11.9035 45.6064C12.164 45.3499 12.3104 45.002 12.3104 44.6392V38.9988C12.3161 38.823 12.2862 38.6478 12.2225 38.4835C12.1587 38.3191 12.0624 38.1689 11.9391 38.0416C11.8158 37.9143 11.6679 37.8124 11.5042 37.7419C11.3405 37.6714 11.1642 37.6337 10.9855 37.631L10.9211 37.5958Z" fill="#5E60CE"/>
</g>
<defs>
<clipPath id="clip0_12_482">
<rect width="22" height="36" fill="white" transform="translate(0 10)"/>
</clipPath>
</defs>
</svg>
